<svg xmlns="http://www.w3.org/2000/svg" viewBox="0 0 128 160" x="0px" y="0px">
  <path
    d="M64,0A64,64,0,0,0,32.54,119.7l.3.17c.63.35,1.27.69,1.91,1l.62.32q.9.45,1.81.88l.78.35c.59.26,1.18.52,1.78.77l.87.34c.59.23,1.18.47,1.78.68l.83.28q1.54.53,3.12,1l1.39.4,1.37.33,1.55.36,1.33.26,1.65.29,1.29.2,1.77.23,1.21.13c.67.06,1.34.11,2,.15l1,.07c1,0,2,.08,3.07.08s2.05,0,3.07-.08l1-.07c.67,0,1.34-.09,2-.15l1.21-.13,1.77-.23,1.29-.2,1.65-.29,1.33-.26,1.55-.36,1.37-.33,1.39-.4q1.58-.45,3.12-1l.83-.28c.6-.22,1.19-.45,1.78-.68l.87-.34c.6-.25,1.19-.51,1.78-.77l.78-.35q.92-.42,1.81-.88l.62-.32c.64-.33,1.28-.67,1.91-1l.3-.17A64,64,0,0,0,64,0Zm39.63,109A34.06,34.06,0,0,0,81,81.61h0l-1.18-.37-.14,0a32.75,32.75,0,0,0-3.46-.8l-.38-.07L75,80.2l-.76-.1-.2,0A21.24,21.24,0,0,0,84,61.89V56h16V52H85.58c-.28-2.93-.94-9-1.81-11.41C79,27.53,74.07,24.08,72.15,24.08s-3.23,1.72-4.6,3.38c-1.16,1.4-2.37,2.85-3.54,2.85s-2.38-1.45-3.54-2.85c-1.38-1.66-2.8-3.38-4.6-3.38-2.34,0-7.1,5.78-11.33,16.5-.93,2.36-1.73,8.5-2.07,11.42H28v4H44v5.89A21.24,21.24,0,0,0,54,80.08l-.27,0-.72.09-.87.13-.47.09a32.77,32.77,0,0,0-4.94,1.3h0A34.07,34.07,0,0,0,24.37,109a60,60,0,1,1,79.26,0Z" fill="white"/>
</svg>
