<svg xmlns="http://www.w3.org/2000/svg" x="0px" y="0px"
     fill="currentColor"
     viewBox="0 0 1024 1280" enable-background="new 0 0 1024 1024" xml:space="preserve"><g><g><circle cx="511.8" cy="279.3" r="191.1"/><g>
  <path d="M687.9,279.3c0,4.9-0.2,9.8-0.6,14.7c-0.2,2.5-0.5,5.1-0.7,7.6c-0.1,0.6-0.4,3,0,0.1     c-0.2,1.8-0.5,3.6-0.8,5.4c-1.6,9.3-3.8,18.6-6.8,27.6c-1.4,4.2-3,8.4-4.6,12.5c-1.6,4.1,1.3-2.7-0.6,1.3     c-0.4,0.8-0.7,1.6-1.1,2.4c-1.1,2.4-2.3,4.8-3.4,7.2c-4.2,8.2-9,16.1-14.3,23.7c-0.8,1.1-1.5,2.1-2.3,3.2     c0.1-0.1-2.5,3.3-1.2,1.6c1.3-1.7-1.3,1.7-1.3,1.6c-0.8,1-1.7,2-2.5,3c-3.1,3.7-6.3,7.3-9.7,10.7c-3,3.1-6.2,6.2-9.4,9.1     c-1.6,1.5-3.3,2.9-5,4.3c-0.8,0.7-1.7,1.4-2.5,2.1c-0.5,0.4-4.2,3.2-1.6,1.3c-7.4,5.5-15.1,10.6-23.1,15.1     c-4.1,2.2-8.2,4.3-12.4,6.3c-1,0.5-2,0.9-3,1.4c-3.9,1.8,1.7-0.7-0.7,0.3c-2.5,1-5,2-7.5,2.9c-9.1,3.3-18.4,5.9-27.9,7.8     c-2.2,0.4-4.5,0.8-6.7,1.2c-0.9,0.1-1.8,0.3-2.7,0.4c-4.5,0.7,3.1-0.3-1.5,0.2c-5.1,0.5-10.1,1-15.2,1.2     c-9.8,0.4-19.6-0.2-29.3-1.2c-4.5-0.4,3,0.5-1.5-0.2c-0.9-0.1-1.8-0.3-2.7-0.4c-2.5-0.4-4.9-0.8-7.4-1.3c-4.9-1-9.7-2.1-14.5-3.5     c-4.5-1.3-9-2.7-13.4-4.3c-2.1-0.8-4.2-1.6-6.2-2.4c-4-1.6,1.7,0.7-0.7-0.3c-1.4-0.6-2.8-1.3-4.2-1.9     c-8.4-3.9-16.5-8.4-24.2-13.5c-3.7-2.4-7.2-4.9-10.7-7.6c2.6,2-0.8-0.6-1.1-0.9c-0.7-0.5-1.4-1.1-2-1.7c-2-1.7-4-3.4-6-5.1     c-7.2-6.4-13.8-13.4-19.9-20.8c-0.6-0.7-1.1-1.4-1.7-2c-0.2-0.3-2.9-3.7-0.9-1.1c-1.3-1.7-2.6-3.5-3.9-5.3     c-2.8-3.9-5.4-8-7.9-12.1c-2.3-3.8-4.4-7.6-6.4-11.6c-1-2-2-4-2.9-6c-0.6-1.2-1.1-2.4-1.6-3.6c-1.8-4,1,2.8-0.6-1.3     c-3.5-9-6.6-18.1-8.8-27.4c-1.1-4.6-2-9.3-2.8-14c-0.1-0.9-0.3-1.8-0.4-2.7c-0.7-4.5,0.3,3.1-0.2-1.5c-0.3-2.8-0.6-5.5-0.8-8.3     c-0.7-9.8-0.7-19.6,0.1-29.4c0.2-2.3,0.4-4.6,0.7-6.9c0.4-4.5-0.5,3,0.2-1.5c0.1-0.9,0.3-1.8,0.4-2.7c0.8-4.9,1.8-9.8,2.9-14.7     c2.3-9.3,5.3-18.5,8.9-27.4c1-2.4-1.5,3.2,0.3-0.7c0.5-1.2,1.1-2.4,1.6-3.6c0.9-2,1.9-4,2.9-6c2.2-4.3,4.5-8.5,7.1-12.7     c2.3-3.7,4.7-7.4,7.2-11c1.3-1.8,2.6-3.5,3.9-5.3c-2,2.6,0.6-0.8,0.9-1.1c0.8-1,1.7-2,2.5-3c5.9-7,12.3-13.6,19.1-19.8     c1.8-1.6,3.6-3.2,5.5-4.7c0.8-0.7,1.7-1.4,2.5-2.1c-0.1,0.1,3.3-2.6,1.6-1.3c-1.7,1.3,1.7-1.3,1.6-1.2c1.1-0.8,2.1-1.5,3.2-2.3     c2.1-1.5,4.3-3,6.5-4.4c7.8-5,15.9-9.5,24.3-13.3c0.8-0.4,1.6-0.7,2.4-1.1c4-1.8-2.8,1.1,1.3-0.6c2.1-0.8,4.1-1.6,6.2-2.4     c4.6-1.7,9.3-3.2,14-4.5c4.3-1.2,8.7-2.3,13.2-3.2c2.5-0.5,4.9-1,7.4-1.4c1.1-0.2,2.3-0.4,3.4-0.5c3.6-0.5-1.9,0.1,1.5-0.2     c10.2-1,20.4-1.5,30.7-1.1c4.6,0.2,9.2,0.6,13.8,1.1c4.4,0.4-1.9-0.3,0.8,0.1c1.1,0.2,2.3,0.3,3.4,0.5c2.7,0.4,5.4,0.9,8.1,1.5     c9.2,1.9,18.3,4.5,27.2,7.7c2.1,0.8,4.2,1.6,6.2,2.4c4.1,1.6-2.7-1.3,1.3,0.6c0.8,0.4,1.6,0.7,2.4,1.1c4.6,2.1,9.1,4.4,13.6,6.9     c4,2.2,8,4.6,11.8,7.2c1.8,1.2,3.6,2.4,5.4,3.7c0.7,0.5,1.4,1,2.1,1.5c0.5,0.3,4.8,3.6,2.2,1.6c7.2,5.6,14.1,11.8,20.4,18.4     c3,3.2,5.9,6.4,8.7,9.8c1.4,1.7,2.8,3.4,4.1,5.1c-2-2.6,0.6,0.8,0.8,1.1c0.8,1.1,1.5,2.1,2.3,3.2c5.4,7.7,10.3,15.8,14.6,24.3     c1.1,2.2,2.1,4.4,3.2,6.6c0.4,0.8,0.7,1.6,1.1,2.4c1.8,4-1.1-2.8,0.6,1.3c1.8,4.6,3.5,9.1,5,13.8c2.9,9,5.1,18.3,6.6,27.6     c0.2,1.4,0.4,2.7,0.6,4.1c-0.1-0.6-0.3-2.9,0,0.1c0.2,2.3,0.5,4.6,0.7,6.9C687.7,269,687.9,274.1,687.9,279.3     c0,7.8,6.9,15.4,15,15c8.1-0.4,15-6.6,15-15c-0.2-42.2-13.1-84.3-37.7-118.7c-24.7-34.5-58.8-60.6-98.7-75.2     c-79.9-29.2-173.6-3.8-227.7,61.8c-27.5,33.3-44,73.7-47.4,116.8c-3.4,42.3,7.1,85.8,29.1,122c21.3,35,53.3,64,90.8,80.8     c39.9,17.8,83.9,23,126.8,14.5c82.4-16.3,149.5-85.7,162.2-168.8c1.7-11,2.7-22,2.7-33.1c0-7.8-6.9-15.4-15-15     C694.7,264.6,687.9,270.9,687.9,279.3z"/></g></g><g><path d="M862.5,936.7H161.6c-28.7,0-51.9-23.3-51.9-51.9V850c0-175.2,142-317.2,317.2-317.2h170.3    c175.2,0,317.2,142,317.2,317.2v34.8C914.5,913.5,891.2,936.7,862.5,936.7z"/>
  <g><path d="M862.5,921.7c-7.1,0-14.3,0-21.4,0c-19.4,0-38.7,0-58.1,0c-28.2,0-56.4,0-84.6,0c-33.9,0-67.8,0-101.7,0     c-36.4,0-72.8,0-109.2,0c-35.8,0-71.7,0-107.5,0c-31.7,0-63.5,0-95.2,0c-24.6,0-49.2,0-73.8,0c-14.2,0-28.5,0-42.7,0     c-2.2,0-4.5,0-6.7,0c-0.5,0-1,0-1.5,0c-1.4,0-2.8-0.1-4.2-0.3c3,0.3-1.8-0.4-2.7-0.6c-1.5-0.4-3-0.8-4.5-1.3     c-0.6-0.2-1.3-0.5-1.9-0.7c0.2,0.1,2.1,1,0.5,0.2c-3-1.4-5.8-3.1-8.5-5c2.1,1.4-0.3-0.3-1.1-0.9c-1.1-1-2.2-2.1-3.3-3.2     c-0.9-0.9-1.8-1.9-2.6-2.9c-1.5-1.8,1.2,1.8,0-0.1c-0.5-0.7-1-1.4-1.4-2.2c-0.8-1.3-1.6-2.6-2.3-4c-0.4-0.9-1.5-3.6-0.6-1.3     c-1.2-3.2-2-6.4-2.7-9.7c-0.3-1.7,0,0.3,0.1,0.6c-0.1-0.7-0.1-1.4-0.2-2.1c-0.1-1.2-0.1-2.4-0.1-3.5c0-0.7,0-1.4,0-2.1     c0-3.6,0-7.2,0-10.9c0-7.1,0-14.2,0-21.3c0-11.3,0.6-22.6,1.7-33.9c0.1-1.4,0.3-2.7,0.5-4.1c0.1-0.6,0.6-4.9,0.4-3.5     c-0.2,1.7,0.1-0.5,0.1-0.7c0.1-0.9,0.3-1.8,0.4-2.7c0.2-1.6,0.5-3.2,0.8-4.7c1.1-6.3,2.3-12.5,3.7-18.7     c2.8-12,6.3-23.9,10.4-35.5c1-2.7,2-5.4,3-8.1c0.6-1.4,1.1-2.9,1.7-4.3c0.3-0.6,0.5-1.2,0.8-1.8c0.9-2.3-1.4,3.2,0.3-0.7     c2.4-5.5,4.9-10.9,7.6-16.2c5.4-10.8,11.5-21.3,18.1-31.4c3.4-5.1,6.9-10.2,10.5-15.1c0.8-1.1,1.6-2.1,2.4-3.1     c0.3-0.4,1.7-2.2,0.1-0.1c0.4-0.5,0.8-1,1.2-1.5c1.9-2.4,3.8-4.8,5.8-7.1c7.7-9.2,15.9-18,24.6-26.3c4.4-4.2,9-8.3,13.6-12.3     c2.2-1.8,4.4-3.6,6.6-5.4c1.2-1,2.4-1.9,3.6-2.8c-2.1,1.7,1-0.7,1.7-1.2c19.5-14.6,40.7-27,63.1-36.8c0.8-0.4,3.7-1.6,1.3-0.6     c1.4-0.6,2.9-1.2,4.3-1.8c2.9-1.2,5.8-2.3,8.7-3.3c5.7-2.1,11.4-4,17.1-5.7c12.1-3.7,24.4-6.6,36.9-8.8c2.9-0.5,5.9-1,8.8-1.4     c0.7-0.1,1.4-0.2,2-0.3c-0.2,0-2.4,0.3-0.6,0.1c1.8-0.2,3.6-0.5,5.5-0.7c6.4-0.7,12.9-1.2,19.4-1.6c6-0.3,12-0.4,18.1-0.4     c27.1,0,54.2,0,81.3,0c28.1,0,56.1,0,84.2,0c4.5,0,9,0,13.5,0.2c6.5,0.2,13,0.6,19.5,1.2c3,0.3,6,0.6,8.9,1     c0.7,0.1,1.4,0.2,2,0.3c2.4,0.3-2.3-0.3,0.1,0c1.6,0.2,3.2,0.5,4.7,0.7c24.5,3.9,48.3,10.7,71.2,20c2.7,1.1,0.6,0.3,0.1,0     c0.6,0.3,1.2,0.5,1.8,0.8c1.4,0.6,2.8,1.2,4.2,1.9c2.8,1.3,5.6,2.6,8.4,4c5.5,2.7,11,5.6,16.4,8.6c10.5,5.9,20.7,12.4,30.4,19.5     c2.3,1.7,4.6,3.4,6.8,5.1c-2-1.5,0.4,0.3,1.1,0.9c1.4,1.1,2.7,2.2,4.1,3.3c4.7,3.9,9.3,7.9,13.8,12c8.8,8.1,17.2,16.8,25.1,25.8     c1.9,2.1,3.7,4.3,5.5,6.5c1,1.2,1.9,2.4,2.9,3.6c0.5,0.7,2.9,3.8,1.3,1.6c3.7,4.9,7.3,9.8,10.8,14.9c6.8,10,13,20.4,18.6,31.1     c2.8,5.3,5.4,10.6,7.8,16.1c0.6,1.4,1.3,2.8,1.9,4.2c0.3,0.6,0.5,1.2,0.8,1.8c-0.2-0.5-1.1-2.6,0,0.1c1.2,2.9,2.3,5.8,3.4,8.7     c4.4,11.5,8,23.3,11,35.2c1.5,5.9,2.8,11.9,3.9,17.9c0.6,3.1,1.1,6.3,1.6,9.4c0.2,1.4,0.4,2.7,0.6,4.1c0.4,3,0.1,0.7,0,0.1     c0.1,0.9,0.2,1.8,0.3,2.7c1.6,12.7,2.3,25.5,2.4,38.2c0,12.5,0.5,25.1,0,37.6c0,0.9-0.6,5-0.1,2.2c-0.2,1.3-0.5,2.7-0.8,4     c-0.4,1.5-0.8,3-1.3,4.5c-0.2,0.6-0.5,1.3-0.7,1.9c0.9-2.5,0.2-0.5-0.1,0.1c-1.3,2.6-2.8,5-4.3,7.4c-0.9,1.4,0.2-0.2,0.4-0.4     c-0.5,0.7-1.1,1.4-1.7,2c-0.9,1-1.8,1.9-2.7,2.8c-1.1,1.1-2.2,2.1-3.4,3c-1.3,1.1,0.2-0.2,0.4-0.4c-0.5,0.4-1.1,0.8-1.6,1.1     c-1.3,0.8-2.6,1.6-3.9,2.4c-0.6,0.3-4.3,2-3,1.5c1.3-0.5-2,0.7-2.6,0.8c-1.5,0.5-3,0.9-4.6,1.2c-1,0.2-4,0.6-1.4,0.3     C866.2,921.6,864.4,921.7,862.5,921.7c-7.8,0.1-15.4,6.8-15,15c0.4,8,6.6,15.1,15,15c30-0.4,57.3-20.7,64.8-50     c4.1-15.8,2.2-33.6,2.2-49.8c0-50.3-10.9-99.6-32.4-145.1c-21.4-45.1-53.6-85.6-92.8-116.6c-40.5-32-87.8-54.9-138.5-65.4     c-31.7-6.6-63.4-7.1-95.6-7.1c-34.9,0-69.8,0-104.7,0c-29.4,0-58.5-0.4-87.7,3.7c-50.3,7.2-99.2,26.6-140.7,55.9     c-41.7,29.3-76.7,67.7-101.3,112.4c-25.3,46.1-39.4,97.9-41,150.4c-0.4,14.7-0.3,29.4-0.2,44c0.2,28.6,17.6,53.4,44.3,63.5     c12.7,4.8,26.4,4,39.8,4c18.5,0,37,0,55.5,0c28.2,0,56.4,0,84.6,0c34.4,0,68.8,0,103.2,0c37.2,0,74.3,0,111.5,0     c36.5,0,73,0,109.5,0c32.4,0,64.9,0,97.3,0c24.9,0,49.8,0,74.8,0c14,0,28,0,41.9,0c1.8,0,3.6,0,5.4,0c7.8,0,15.4-6.9,15-15     C877.2,928.6,870.9,921.7,862.5,921.7z" /></g></g></g>
</svg>
