<svg width="24" height="24" viewBox="0 0 24 24" fill="none" xmlns="http://www.w3.org/2000/svg">
<path fill-rule="evenodd" clip-rule="evenodd" d="M4.80118 9.60398C4.80118 6.94647 6.94641 4.80124 9.60392 4.80124C12.2614 4.80124 14.4067 6.94647 14.4067 9.60398C14.4067 12.2615 12.2614 14.4067 9.60392 14.4067C6.94641 14.4067 4.80118 12.2615 4.80118 9.60398ZM16.0076 14.4067H15.1644L14.8656 14.1186C15.9115 12.9019 16.5412 11.3223 16.5412 9.60398C16.5412 5.77246 13.4354 2.66669 9.60392 2.66669C5.7724 2.66669 2.66663 5.77246 2.66663 9.60398C2.66663 13.4355 5.7724 16.5413 9.60392 16.5413C11.3222 16.5413 12.9018 15.9116 14.1185 14.8657L14.4067 15.1645V16.0076L19.7431 21.3334L21.3333 19.7431L16.2803 14.68L16.0076 14.4067Z" fill="#43B581"/>
</svg>
